<?xml version="1.0" encoding="utf-8"?>
<svg width="17.48999px" height="17.490234px" viewBox="0 0 17.48999 17.490234" version="1.1" xmlns:xlink="http://www.w3.org/1999/xlink" xmlns="http://www.w3.org/2000/svg">
  <defs>
    <path d="M12.5 11L11.71 11L11.43 10.73C12.41 9.59 13 8.11 13 6.5C13 2.91 10.09 0 6.5 0C2.90997 0 0 2.91 0 6.5C0 10.09 2.90997 13 6.5 13C8.10999 13 9.59003 12.41 10.73 11.43L11 11.71L11 12.5L16 17.49L17.49 16L12.5 11L12.5 11ZM6.5 11C4.01001 11 2 8.99 2 6.5C2 4.01 4.01001 2 6.5 2C8.98999 2 11 4.01 11 6.5C11 8.99 8.98999 11 6.5 11L6.5 11Z" id="path_1" />
    <clipPath id="mask_1">
      <use xlink:href="#path_1" />
    </clipPath>
  </defs>
  <path d="M12.5 11L11.71 11L11.43 10.73C12.41 9.59 13 8.11 13 6.5C13 2.91 10.09 0 6.5 0C2.90997 0 0 2.91 0 6.5C0 10.09 2.90997 13 6.5 13C8.10999 13 9.59003 12.41 10.73 11.43L11 11.71L11 12.5L16 17.49L17.49 16L12.5 11L12.5 11ZM6.5 11C4.01001 11 2 8.99 2 6.5C2 4.01 4.01001 2 6.5 2C8.98999 2 11 4.01 11 6.5C11 8.99 8.98999 11 6.5 11L6.5 11Z" id="Mask" fill="#42434B" fill-rule="evenodd" stroke="none" />
</svg>