<?xml version="1.0" encoding="utf-8"?>
<svg width="35px" height="35px" viewBox="0 0 35 35" version="1.1" xmlns:xlink="http://www.w3.org/1999/xlink" xmlns="http://www.w3.org/2000/svg">
  <defs>
    <path d="M1.99902 0L33.001 0Q33.0992 0 33.1969 0.00962584Q33.2946 0.0192517 33.391 0.0384107Q33.4873 0.0575697 33.5813 0.0860773Q33.6752 0.114585 33.766 0.152167Q33.8567 0.189748 33.9433 0.236042Q34.0299 0.282336 34.1116 0.336896Q34.1932 0.391456 34.2691 0.453757Q34.3451 0.516058 34.4145 0.5855Q34.4839 0.654942 34.5462 0.730856Q34.6085 0.80677 34.6631 0.888425Q34.7177 0.970081 34.764 1.05669Q34.8102 1.1433 34.8478 1.23403Q34.8854 1.32476 34.9139 1.41874Q34.9424 1.51271 34.9616 1.60903Q34.9808 1.70535 34.9904 1.80308Q35 1.90082 35 1.99902L35 33.001Q35 33.0992 34.9904 33.1969Q34.9808 33.2946 34.9616 33.391Q34.9424 33.4873 34.9139 33.5813Q34.8854 33.6752 34.8478 33.766Q34.8102 33.8567 34.764 33.9433Q34.7177 34.0299 34.6631 34.1116Q34.6085 34.1932 34.5462 34.2691Q34.4839 34.3451 34.4145 34.4145Q34.3451 34.4839 34.2691 34.5462Q34.1932 34.6085 34.1116 34.6631Q34.0299 34.7177 33.9433 34.764Q33.8567 34.8102 33.766 34.8478Q33.6752 34.8854 33.5813 34.9139Q33.4873 34.9424 33.391 34.9616Q33.2946 34.9808 33.1969 34.9904Q33.0992 35 33.001 35L1.99902 35Q1.90082 35 1.80308 34.9904Q1.70535 34.9808 1.60903 34.9616Q1.51271 34.9424 1.41874 34.9139Q1.32476 34.8854 1.23403 34.8478Q1.1433 34.8102 1.05669 34.764Q0.970081 34.7177 0.888425 34.6631Q0.80677 34.6085 0.730856 34.5462Q0.654942 34.4839 0.5855 34.4145Q0.516058 34.3451 0.453757 34.2691Q0.391456 34.1932 0.336896 34.1116Q0.282336 34.0299 0.236042 33.9433Q0.189748 33.8567 0.152167 33.766Q0.114585 33.6752 0.0860773 33.5813Q0.0575697 33.4873 0.0384107 33.391Q0.0192517 33.2946 0.00962584 33.1969Q0 33.0992 0 33.001L0 1.99902Q0 1.90082 0.00962584 1.80308Q0.0192517 1.70535 0.0384107 1.60903Q0.0575697 1.51271 0.0860773 1.41874Q0.114585 1.32476 0.152167 1.23403Q0.189748 1.1433 0.236042 1.05669Q0.282336 0.970081 0.336896 0.888425Q0.391456 0.80677 0.453757 0.730856Q0.516058 0.654942 0.5855 0.5855Q0.654942 0.516058 0.730856 0.453757Q0.80677 0.391456 0.888425 0.336896Q0.970081 0.282336 1.05669 0.236042Q1.1433 0.189748 1.23403 0.152167Q1.32476 0.114585 1.41874 0.0860773Q1.51271 0.0575697 1.60903 0.0384107Q1.70535 0.0192517 1.80308 0.00962584Q1.90082 0 1.99902 0Z" id="path_1" />
    <path d="M25 19L19 19L19 25L17 25L17 19L11 19L11 17L17 17L17 11L19 11L19 17L25 17L25 19L25 19Z" id="path_2" />
    <clipPath id="clip_1">
      <use xlink:href="#path_1" />
    </clipPath>
    <clipPath id="mask_1">
      <use xlink:href="#path_2" />
    </clipPath>
  </defs>
  <g id="Rectangle-94">
    <g clip-path="url(#clip_1)">
      <use xlink:href="#path_1" fill="none" stroke="#3F4048" stroke-width="4" />
    </g>
  </g>
  <path d="M25 19L19 19L19 25L17 25L17 19L11 19L11 17L17 17L17 11L19 11L19 17L25 17L25 19L25 19Z" id="Mask-37" fill="#3F4048" fill-rule="evenodd" stroke="none" />
</svg>