<?xml version="1.0" encoding="utf-8"?>
<svg width="7.267578px" height="14.25px" viewBox="0 0 7.267578 14.25" version="1.1" xmlns:xlink="http://www.w3.org/1999/xlink" xmlns="http://www.w3.org/2000/svg">
  <defs>
    <path d="M3.63379 2.24023L6.14355 4.75L7.25977 3.63379L3.63379 0L0 3.63379L1.12402 4.75L3.63379 2.24023L3.63379 2.24023ZM3.63379 12.0098L1.12402 9.5L0.0078125 10.6162L3.63379 14.25L7.26758 10.6162L6.14355 9.5L3.63379 12.0098L3.63379 12.0098Z" id="path_1" />
    <clipPath id="mask_1">
      <use xlink:href="#path_1" />
    </clipPath>
  </defs>
  <path d="M3.63379 2.24023L6.14355 4.75L7.25977 3.63379L3.63379 0L0 3.63379L1.12402 4.75L3.63379 2.24023L3.63379 2.24023ZM3.63379 12.0098L1.12402 9.5L0.0078125 10.6162L3.63379 14.25L7.26758 10.6162L6.14355 9.5L3.63379 12.0098L3.63379 12.0098Z" id="Mask-41" fill="#7ED321" fill-rule="evenodd" stroke="none" />
</svg>