<?xml version="1.0" encoding="utf-8"?>
<svg width="17px" height="13px" viewBox="0 0 17 13" version="1.1" xmlns:xlink="http://www.w3.org/1999/xlink" xmlns="http://www.w3.org/2000/svg">
  <defs>
    <path d="M0 6L5 6L5 0L0 0L0 6L0 6ZM0 13L5 13L5 7L0 7L0 13L0 13ZM6 13L11 13L11 7L6 7L6 13L6 13ZM12 13L17 13L17 7L12 7L12 13L12 13ZM6 6L11 6L11 0L6 0L6 6L6 6ZM12 0L12 6L17 6L17 0L12 0L12 0Z" id="path_1" />
    <clipPath id="mask_1">
      <use xlink:href="#path_1" />
    </clipPath>
  </defs>
  <path d="M0 6L5 6L5 0L0 0L0 6L0 6ZM0 13L5 13L5 7L0 7L0 13L0 13ZM6 13L11 13L11 7L6 7L6 13L6 13ZM12 13L17 13L17 7L12 7L12 13L12 13ZM6 6L11 6L11 0L6 0L6 6L6 6ZM12 0L12 6L17 6L17 0L12 0L12 0Z" id="Mask-38" fill="#43444B" fill-rule="evenodd" stroke="none" />
</svg>