<?xml version="1.0" encoding="utf-8"?>
<svg width="4px" height="16px" viewBox="0 0 4 16" version="1.1" xmlns:xlink="http://www.w3.org/1999/xlink" xmlns="http://www.w3.org/2000/svg">
  <defs>
    <path d="M2 4C3.1001 4 4 3.09961 4 2C4 0.900391 3.1001 0 2 0C0.899902 0 0 0.900391 0 2C0 3.09961 0.899902 4 2 4L2 4ZM2 6C0.899902 6 0 6.90039 0 8C0 9.09961 0.899902 10 2 10C3.1001 10 4 9.09961 4 8C4 6.90039 3.1001 6 2 6L2 6ZM2 12C0.899902 12 0 12.9004 0 14C0 15.0996 0.899902 16 2 16C3.1001 16 4 15.0996 4 14C4 12.9004 3.1001 12 2 12L2 12Z" id="path_1" />
    <clipPath id="mask_1">
      <use xlink:href="#path_1" />
    </clipPath>
  </defs>
  <path d="M2 4C3.1001 4 4 3.09961 4 2C4 0.900391 3.1001 0 2 0C0.899902 0 0 0.900391 0 2C0 3.09961 0.899902 4 2 4L2 4ZM2 6C0.899902 6 0 6.90039 0 8C0 9.09961 0.899902 10 2 10C3.1001 10 4 9.09961 4 8C4 6.90039 3.1001 6 2 6L2 6ZM2 12C0.899902 12 0 12.9004 0 14C0 15.0996 0.899902 16 2 16C3.1001 16 4 15.0996 4 14C4 12.9004 3.1001 12 2 12L2 12Z" id="Mask-7" fill="#4C4D55" fill-rule="evenodd" stroke="none" />
</svg>